<defs>
<font horiz-adv-x="599" ><font-face
    font-family="texgyreheros-bold"
    units-per-em="1000"
    panose-1="0 0 8 0 0 0 0 0 0 0"
    ascent="1125"
    descent="-307"
    alphabetic="0" />
<missing-glyph horiz-adv-x="280" />
<glyph unicode=" " glyph-name="space" horiz-adv-x="278" />
<glyph unicode="!" glyph-name="exclam" horiz-adv-x="333" d="M242 516L200 207H133L92 516V726H242V516ZM242 0H92V146H242V0Z" />
<glyph unicode="&quot;" glyph-name="quotedbl" horiz-adv-x="474" d="M188 599L146 470H90L50 599V729H188V599ZM424 599L382 470H326L286 599V729H424V599Z" />
<glyph unicode="#" glyph-name="numbersign" horiz-adv-x="556" d="M553 424H444L413 271H513V172H394L354 -32H249L289 172H186L146 -32H40L80 172H3V271H100L130 424H31V523H150L184 697H289L255 523H358L392 697H497L463 523H553V424ZM338 424H235L205 271H308L338
424Z" />
<glyph unicode="$" glyph-name="dollar" horiz-adv-x="556" d="M527 195Q527 139 505 93T441 20Q390 -12 311 -21V-126H243V-21Q161 -13 108 25Q22 86 22 198V207H153Q158 101 243 86V299Q39 346 39 512Q39 596 92 648T243 709V763H311V709Q406 704 461 648T517
498H389Q389 544 369 573T311 608V407Q427 375 477 326T527 195ZM243 427V608Q162 592 162 516Q162 453 243 427ZM395 183Q395 256 311 282V86Q395 107 395 183Z" />
<glyph unicode="%" glyph-name="percent" horiz-adv-x="889" d="M390 517Q390 444 336 391T206 337Q130 337 76 390T22 519T76 647T206 701Q283 701 336 648T390 517ZM291 518Q291 553 266 577T206 602T146 578T121 519Q121 484 146 460T206 435T266 459T291 518ZM692
709L297 -20H190L586 709H692ZM863 167Q863 94 809 41T679 -13Q603 -13 549 40T495 170Q495 245 549 298T679 352Q756 352 809 299T863 167ZM764 168Q764 203 739 228T679 253T619 229T594 169T619 110T679 85T739 109T764 168Z" />
<glyph unicode="&amp;" glyph-name="ampersand" horiz-adv-x="722" d="M694 0H533L487 56Q427 11 385 -6T292 -23Q185 -23 120 36T55 193Q55 264 89 309T212 401Q203 413 200 416L172 450Q129 501 130 556Q130 627 184 675T319 723T448 681T497 568Q497 514 472
476T380 392L496 248Q526 305 526 363V373H639V357Q639 301 620 246T571 154L694 0ZM414 148L278 319L231 290Q188 264 188 210Q188 165 220 129T294 93Q342 93 414 148ZM377 556Q377 584 362 599T320 614Q295 614 279 601T262 566Q262 547 270 533T317 470Q377
503 377 556Z" />
<glyph unicode="&apos;" glyph-name="quotesingle" horiz-adv-x="238" d="M188 599L146 470H90L50 599V729H188V599Z" />
<glyph unicode="(" glyph-name="parenleft" horiz-adv-x="333" d="M303 -200H203Q117 -70 79 39T40 265Q40 380 78 490T203 729H303Q224 576 194 476T163 265T193 55T303 -200Z" />
<glyph unicode=")" glyph-name="parenright" horiz-adv-x="333" d="M285 264Q285 149 247 39T122 -200H22Q101 -47 131 53T162 264T132 474T22 729H122Q208 599 246 490T285 264Z" />
<glyph unicode="*" glyph-name="asterisk" horiz-adv-x="389" d="M357 579L248 544L315 450L257 407L190 501L123 407L65 450L132 544L23 580L45 649L154 613V729H226V613L335 649L357 579Z" />
<glyph unicode="+" glyph-name="plus" horiz-adv-x="584" d="M524 200H342V18H242V200H60V300H242V482H342V300H524V200Z" />
<glyph unicode="," glyph-name="comma" horiz-adv-x="278" d="M214 9Q214 -49 202 -81T160 -137Q121 -167 64 -174V-118Q150 -101 150 -3V0H64V146H214V9Z" />
<glyph unicode="-" glyph-name="hyphen" horiz-adv-x="333" d="M298 207H26V342H298V207Z" />
<glyph unicode="." glyph-name="period" horiz-adv-x="278" d="M214 0H64V146H214V0Z" />
<glyph unicode="/" glyph-name="slash" horiz-adv-x="278" d="M291 714L85 -14H-12L194 714H291Z" />
<glyph unicode="0" glyph-name="zero" horiz-adv-x="556" d="M517 353Q517 251 500 179T449 67T373 9T273 -9Q213 -9 169 10T99 62T56 143T35 242T29 357Q29 423 34 474T56 573T99 654T170 705T273 724Q334 724 378 704T449 652T491 570T512 470T517 353ZM377
356Q377 463 365 520T332 594T273 611Q234 611 213 591T180 516T169 358T181 201T214 129T273 111Q312 111 333 130T366 203T377 356Z" />
<glyph unicode="1" glyph-name="one" horiz-adv-x="556" d="M378 0H238V489H68V582Q252 582 285 709H378V0Z" />
<glyph unicode="2" glyph-name="two" horiz-adv-x="556" d="M515 499Q515 427 482 377T356 259Q277 202 251 178T212 125H512V0H30Q35 98 69 156T194 276Q311 359 343 398T375 496Q375 549 349 579T275 610Q227 610 201 577T174 485V462H40Q39 473 39 487Q39 599
100 661T272 724Q384 724 449 663T515 499Z" />
<glyph unicode="3" glyph-name="three" horiz-adv-x="556" d="M516 218Q516 114 449 53T268 -9Q159 -9 94 53T29 222H165Q165 168 193 140T271 111Q317 111 346 141T376 218Q376 274 337 299T217 324V418H229Q292 418 322 442T353 518Q353 562 330 586T265 611Q213
611 191 582T168 486H38V498Q38 610 100 667T268 724Q371 724 432 672T493 531Q493 483 472 451T400 387Q461 357 488 318T516 218Z" />
<glyph unicode="4" glyph-name="four" horiz-adv-x="556" d="M522 157H448V0H308V157H24V275L283 709H448V273H522V157ZM308 273V576L123 273H308Z" />
<glyph unicode="5" glyph-name="five" horiz-adv-x="556" d="M517 241Q517 127 447 59T261 -9Q157 -9 92 48T27 199H165Q165 157 191 134T263 111Q316 111 346 144T377 238Q377 302 347 335T263 368Q196 368 173 314H47L110 709H489V584H196L173 436Q230 479 296
479Q395 479 456 414T517 241Z" />
<glyph unicode="6" glyph-name="six" horiz-adv-x="556" d="M519 244Q519 129 454 60T282 -9Q144 -9 83 89Q32 170 32 337Q32 528 98 626T294 724Q382 724 438 679T507 548H377Q363 582 344 596T290 611Q227 611 202 564T172 404Q205 438 237 452T313 467Q405
467 462 406T519 244ZM386 235Q386 293 357 325T279 357T200 324T170 232Q170 176 199 144T278 111Q325 111 355 145T386 235Z" />
<glyph unicode="7" glyph-name="seven" horiz-adv-x="556" d="M528 599Q402 447 343 308T274 0H133Q146 111 167 189T226 347Q248 394 299 472T382 584H29V709H528V599Z" />
<glyph unicode="8" glyph-name="eight" horiz-adv-x="556" d="M525 211Q525 111 456 51T274 -9Q161 -9 92 51T22 211Q22 273 49 313T138 386Q90 412 68 446T46 531Q46 615 110 669T274 724Q372 724 436 670T501 532Q501 480 479 446T409 386Q471 353 498 313T525
211ZM380 518Q379 560 351 585T275 611T199 586T169 519T198 452T275 425Q321 425 350 451T380 518ZM385 217Q385 272 356 301T273 330Q222 330 192 301T162 219Q162 167 191 139T273 111T355 139T385 217Z" />
<glyph unicode="9" glyph-name="nine" horiz-adv-x="556" d="M516 385Q516 193 451 92T255 -9Q163 -9 102 44T38 180H173Q175 149 198 130T259 111Q376 111 376 313Q338 271 312 257T240 243Q145 243 87 308T28 482Q28 592 94 658T267 724Q383 724 449 643T516
385ZM373 482Q373 544 344 577T263 610Q216 610 189 578T161 484Q161 424 188 392T265 359T343 391T373 482Z" />
<glyph unicode=":" glyph-name="colon" horiz-adv-x="333" d="M242 0H92V146H242V0ZM242 374H92V520H242V374Z" />
<glyph unicode=";" glyph-name="semicolon" horiz-adv-x="333" d="M242 9Q242 -49 230 -81T188 -137Q149 -167 92 -174V-118Q178 -101 178 -3V0H92V146H242V9ZM242 374H92V520H242V374Z" />
<glyph unicode="&lt;" glyph-name="less" horiz-adv-x="584" d="M464 -105L88 212V288L464 605V475L198 250L464 25V-105Z" />
<glyph unicode="=" glyph-name="equal" horiz-adv-x="584" d="M524 291H60V391H524V291ZM524 109H60V209H524V109Z" />
<glyph unicode="&gt;" glyph-name="greater" horiz-adv-x="584" d="M464 212L88 -105V25L354 250L88 475V605L464 288V212Z" />
<glyph unicode="?" glyph-name="question" horiz-adv-x="611" d="M552 514Q552 451 527 410T432 320Q387 288 376 269T365 201H241V215Q241 272 262 312T340 399Q385 436 398 456T411 511Q411 560 381 593T306 626Q258 626 227 588T196 492V483V481H60Q60 613
125 678T303 744Q413 744 482 680T552 514ZM381 0H231V146H381V0Z" />
<glyph unicode="@" glyph-name="at" horiz-adv-x="975" d="M959 366Q959 290 924 218T824 97T681 49Q592 49 568 110Q508 54 437 54Q363 54 314 109T264 246Q264 359 335 444T508 529Q582 529 624 467L637 509H748L674 218Q664 188 664 174Q664 162 674 154T698
146Q755 146 800 211T846 354Q846 470 749 554T519 638Q371 638 262 529T152 273Q152 140 253 50T502 -40Q576 -40 699 -8L735 -98Q613 -144 497 -144Q307 -144 174 -27T41 258Q41 386 107 497T287 675T532 741Q707 741 833 631T959 366ZM579 360V365Q579 396 557
417T503 438Q448 438 410 380T371 245Q371 203 394 174T452 145Q507 145 541 208T579 360Z" />
<glyph unicode="A" glyph-name="A" horiz-adv-x="722" d="M703 0H549L501 147H228L179 0H26L285 729H451L703 0ZM460 272L365 557L270 272H460Z" />
<glyph unicode="B" glyph-name="B" horiz-adv-x="722" d="M666 210Q666 116 600 58T410 0H82V729H407Q517 729 581 674T645 537Q645 490 622 456T545 387Q666 316 666 210ZM501 521Q501 604 395 604H232V439H395Q501 439 501 521ZM522 219Q522 314 411 314H232V125H411Q522
125 522 219Z" />
<glyph unicode="C" glyph-name="C" horiz-adv-x="722" d="M685 249Q678 125 595 57T374 -12Q221 -12 133 88T44 364Q44 540 133 640T378 741Q505 741 589 673T682 482H539Q508 613 383 613Q294 613 244 548T194 362Q194 243 242 179T378 114Q526 114 539 249H685Z" />
<glyph unicode="D" glyph-name="D" horiz-adv-x="722" d="M681 539T681 365T592 85Q520 0 362 0H77V729H362Q446 729 500 709T592 645Q681 539 681 365ZM531 364Q531 604 362 604H227V125H362Q531 125 531 364Z" />
<glyph unicode="E" glyph-name="E" horiz-adv-x="667" d="M624 0H79V729H606V604H229V439H578V314H229V125H624V0Z" />
<glyph unicode="F" glyph-name="F" horiz-adv-x="611" d="M586 604H224V439H543V314H224V0H74V729H586V604Z" />
<glyph unicode="G" glyph-name="G" horiz-adv-x="778" d="M711 0H621L603 100Q561 42 509 15T383 -12Q235 -12 139 94T42 365Q42 535 139 638T395 741Q527 741 612 675T711 496H570Q530 613 396 613Q300 613 246 549T192 367Q192 255 250 186T400 116Q469 116
523 158T585 267H419V392H711V0Z" />
<glyph unicode="H" glyph-name="H" horiz-adv-x="722" d="M657 0H507V331H218V0H68V729H218V456H507V729H657V0Z" />
<glyph unicode="I" glyph-name="I" horiz-adv-x="278" d="M213 0H63V729H213V0Z" />
<glyph unicode="J" glyph-name="J" horiz-adv-x="556" d="M486 201Q486 99 425 44T252 -12Q147 -12 86 45T24 209V270H174V211Q174 161 193 139T255 116Q294 116 315 138T336 201V729H486V201Z" />
<glyph unicode="K" glyph-name="K" horiz-adv-x="722" d="M717 0H538L299 322L224 244V0H74V729H224V409L509 729H686L395 415L717 0Z" />
<glyph unicode="L" glyph-name="L" horiz-adv-x="611" d="M579 0H80V729H230V125H579V0Z" />
<glyph unicode="M" glyph-name="M" horiz-adv-x="833" d="M776 0H626V568L497 0H347L216 568V0H66V729H290L422 149L550 729H776V0Z" />
<glyph unicode="N" glyph-name="N" horiz-adv-x="722" d="M661 0H511L218 504V0H68V729H222L511 233V729H661V0Z" />
<glyph unicode="O" glyph-name="O" horiz-adv-x="778" d="M742 360Q742 198 645 93T391 -12Q232 -12 136 93T40 365Q40 526 136 633T390 741Q548 741 645 634T742 360ZM592 361Q592 475 538 544T391 613Q301 613 246 545T190 365Q190 251 245 184T391 116Q481
116 536 183T592 361Z" />
<glyph unicode="P" glyph-name="P" horiz-adv-x="667" d="M633 503Q633 392 573 326T413 260H226V0H76V729H398Q512 729 572 671T633 503ZM483 494Q483 550 455 577T366 604H226V385H366Q483 385 483 494Z" />
<glyph unicode="Q" glyph-name="Q" horiz-adv-x="778" d="M745 38L669 -43L583 38Q500 -12 394 -12Q236 -12 140 93T43 365T139 636T394 741T648 636T745 367Q745 294 724 227T665 114L745 38ZM595 364Q595 476 540 544T394 613T248 546T193 365T247 184T393 116Q445
116 481 135L404 208L480 289L562 211Q595 277 595 364Z" />
<glyph unicode="R" glyph-name="R" horiz-adv-x="722" d="M677 0H516Q502 26 498 50T493 125L495 202Q495 248 473 268T402 289H230V0H80V729H471Q565 729 616 675T667 532Q667 400 544 352Q571 341 584 335T610 313T628 286T637 242T643 179T645 87Q645 45 677
27V0ZM517 511Q517 560 494 582T411 604H230V414H411Q472 414 494 437T517 511Z" />
<glyph unicode="S" glyph-name="S" horiz-adv-x="667" d="M633 219Q633 109 555 49T334 -12Q193 -12 113 50T32 229H178Q178 171 221 140T342 108Q411 108 450 132T489 201Q489 244 459 265T352 301L250 321Q139 343 92 387T45 517Q45 624 117 682T321 741Q456
741 531 681T607 507H467Q467 562 427 591T314 621Q256 621 222 597T188 531Q188 491 217 472T326 436L440 414Q542 394 587 349T633 219Z" />
<glyph unicode="T" glyph-name="T" horiz-adv-x="611" d="M598 604H385V0H235V604H14V729H598V604Z" />
<glyph unicode="U" glyph-name="U" horiz-adv-x="722" d="M654 246Q654 121 575 55T365 -12T156 54T76 246V729H226V246Q226 116 365 116T504 246V729H654V246Z" />
<glyph unicode="V" glyph-name="V" horiz-adv-x="667" d="M647 729L397 0H270L24 729H175L337 180L496 729H647Z" />
<glyph unicode="W" glyph-name="W" horiz-adv-x="944" d="M932 729L730 0H595L473 569L354 0H219L13 729H172L285 183L398 729H546L664 182L773 729H932Z" />
<glyph unicode="X" glyph-name="X" horiz-adv-x="667" d="M653 0H475L335 253L196 0H22L252 367L30 729H208L336 489L470 729H644L419 372L653 0Z" />
<glyph unicode="Y" glyph-name="Y" horiz-adv-x="667" d="M650 729L419 270V0H269V270L27 729H194L343 407L482 729H650Z" />
<glyph unicode="Z" glyph-name="Z" horiz-adv-x="611" d="M578 0H30V125L403 604H30V729H578V604L206 125H578V0Z" />
<glyph unicode="[" glyph-name="bracketleft" horiz-adv-x="333" d="M308 -200H66V729H308V627H196V-98H308V-200Z" />
<glyph unicode="\" glyph-name="backslash" horiz-adv-x="278" d="M305 -14H208L-26 714H71L305 -14Z" />
<glyph unicode="]" glyph-name="bracketright" horiz-adv-x="333" d="M260 -200H18V-98H130V627H18V729H260V-200Z" />
<glyph unicode="^" glyph-name="asciicircum" horiz-adv-x="584" d="M522 270H409L288 570L173 270H61L226 695H351L522 270Z" />
<glyph unicode="_" glyph-name="underscore" horiz-adv-x="556" d="M578 -189H-22V-120H578V-189Z" />
<glyph unicode="`" glyph-name="grave" horiz-adv-x="333" d="M216 598H116L-10 752H146L216 598Z" />
<glyph unicode="a" glyph-name="a" horiz-adv-x="556" d="M524 0H372Q356 20 356 68Q282 -9 192 -9Q121 -9 75 31T28 146Q28 218 66 256T187 309L243 319Q255 321 275 324T303 328T324 334T342 343T351 358T355 382Q355 436 274 436Q222 436 201 420T175 362H40Q53
549 271 549Q492 549 492 383V83Q492 46 524 17V0ZM355 231V255Q336 246 296 238L248 229Q203 221 186 207T168 162Q168 104 244 104Q297 104 326 137T355 231Z" />
<glyph unicode="b" glyph-name="b" horiz-adv-x="611" d="M575 263Q575 142 511 67T348 -9Q251 -9 199 62V0H59V729H199V470Q249 549 348 549Q451 549 513 466T575 263ZM435 269Q435 343 402 387T317 432Q264 432 232 389T199 272Q199 196 231 152T317 108Q369
108 402 152T435 269Z" />
<glyph unicode="c" glyph-name="c" horiz-adv-x="556" d="M522 187Q512 100 448 46T287 -9Q166 -9 100 62T34 266Q34 403 100 476T289 549Q390 549 452 493T522 338H388Q376 391 354 413T288 436Q174 436 174 266Q174 188 204 146T288 104Q328 104 351 124T388 187H522Z" />
<glyph unicode="d" glyph-name="d" horiz-adv-x="611" d="M545 0H405V62Q351 -9 256 -9Q152 -9 91 70T29 269Q29 391 94 470T256 549Q354 549 405 470V729H545V0ZM405 267Q405 344 373 388T287 432Q234 432 202 388T169 269T201 152T287 108T372 151T405 267Z" />
<glyph unicode="e" glyph-name="e" horiz-adv-x="556" d="M525 250L524 233H162Q165 158 193 128T274 98Q364 98 381 152H519Q496 74 429 33T269 -9Q153 -9 88 62T22 263Q22 398 88 473T272 549Q391 549 458 470T525 250ZM379 326Q374 383 345 412T270 442Q178
442 164 326H379Z" />
<glyph unicode="f" glyph-name="f" horiz-adv-x="333" d="M313 436H230V0H90V436H14V529H90V594Q90 729 228 729Q269 729 308 726V621Q290 624 268 624Q230 624 230 582V529H313V436Z" />
<glyph unicode="g" glyph-name="g" horiz-adv-x="611" d="M541 -18Q541 -113 474 -165T284 -218Q175 -218 111 -175T45 -65H190Q207 -128 289 -128Q342 -128 375 -98T408 -18V62Q368 22 335 7T255 -9Q155 -9 95 65T34 264T97 469T258 549Q348 549 408 457V540H541V-18ZM410
266Q410 340 376 386T288 432Q237 432 206 387T174 266Q174 193 205 151T286 108Q341 108 375 150T410 266Z" />
<glyph unicode="h" glyph-name="h" horiz-adv-x="611" d="M541 0H401V330Q401 430 315 430Q268 430 238 400T207 324V0H67V729H207V462Q265 549 365 549Q445 549 493 501T541 362V0Z" />
<glyph unicode="i" glyph-name="i" horiz-adv-x="278" d="M207 0H67V540H207V0ZM209 605H69V745H209V605Z" />
<glyph unicode="j" glyph-name="j" horiz-adv-x="278" d="M210 -94Q210 -160 181 -189T87 -218Q51 -218 4 -213V-101Q17 -105 29 -105Q52 -105 61 -96T70 -63V540H210V-94ZM210 605H70V745H210V605Z" />
<glyph unicode="k" glyph-name="k" horiz-adv-x="556" d="M548 0H384L255 238L199 177V0H59V729H199V330L376 540H535L351 336L548 0Z" />
<glyph unicode="l" glyph-name="l" horiz-adv-x="278" d="M207 0H67V729H207V0Z" />
<glyph unicode="m" glyph-name="m" horiz-adv-x="889" d="M824 0H684V360Q684 392 664 411T608 430Q563 430 538 402T512 324V0H372V360Q372 392 352 411T296 430Q251 430 226 402T200 324V0H60V540H199V473Q234 514 267 531T347 549Q453 549 494 469Q554 549
652 549Q733 549 778 505T824 382V0Z" />
<glyph unicode="n" glyph-name="n" horiz-adv-x="611" d="M546 0H406V333Q406 430 316 430Q265 430 234 401T203 324V0H63V540H203V462Q261 549 365 549Q451 549 498 500T546 362V0Z" />
<glyph unicode="o" glyph-name="o" horiz-adv-x="611" d="M569 266Q569 137 498 64T302 -9Q177 -9 106 64T35 270Q35 402 106 475T301 549Q429 549 499 476T569 266ZM429 268Q429 347 395 391T302 436T210 392T175 270T209 149T302 104Q359 104 394 148T429 268Z" />
<glyph unicode="p" glyph-name="p" horiz-adv-x="611" d="M574 270Q574 148 510 70T348 -9Q244 -9 198 72V-218H58V540H198V460Q248 549 348 549Q452 549 513 471T574 270ZM434 268Q434 344 402 388T316 432Q263 432 231 389T198 270T230 152T316 108Q368 108
401 151T434 268Z" />
<glyph unicode="q" glyph-name="q" horiz-adv-x="611" d="M544 -218H404V72Q359 -9 253 -9Q151 -9 90 69T28 270T92 471T254 549Q354 549 404 460V540H544V-218ZM404 267Q404 345 372 388T286 432Q233 432 201 389T168 270T200 152T286 108T371 151T404 267Z" />
<glyph unicode="r" glyph-name="r" horiz-adv-x="389" d="M370 406Q345 410 326 410Q203 410 203 287V0H63V540H203V434Q225 489 265 519T353 549Q362 549 370 548V406Z" />
<glyph unicode="s" glyph-name="s" horiz-adv-x="556" d="M520 160Q520 78 459 35T284 -9Q35 -9 29 171H166Q175 130 200 116T276 101Q380 101 380 147Q380 169 333 184L166 236Q95 258 72 287T48 369Q48 452 107 500T270 549Q379 549 441 501T505 366H370Q369
439 269 439Q232 439 210 426T188 389Q188 372 198 364T237 347L414 296Q520 265 520 167V160Z" />
<glyph unicode="t" glyph-name="t" horiz-adv-x="333" d="M301 0Q295 0 267 -2T220 -4Q150 -4 117 24T83 116V436H14V529H83V674H223V529H301V436H223V154Q223 118 232 107T269 95Q280 95 301 98V0Z" />
<glyph unicode="u" glyph-name="u" horiz-adv-x="611" d="M541 0H401V71Q341 -9 239 -9Q153 -9 106 40T58 178V540H198V207Q198 110 288 110Q339 110 370 139T401 216V540H541V0Z" />
<glyph unicode="v" glyph-name="v" horiz-adv-x="556" d="M536 540L350 0H203L14 540H162L279 145L388 540H536Z" />
<glyph unicode="w" glyph-name="w" horiz-adv-x="778" d="M766 540L613 0H468L387 381L301 0H157L5 540H150L236 162L318 540H458L539 162L621 540H766Z" />
<glyph unicode="x" glyph-name="x" horiz-adv-x="556" d="M535 0H367L276 168L184 0H16L196 272L20 540H188L276 377L363 540H531L355 272L535 0Z" />
<glyph unicode="y" glyph-name="y" horiz-adv-x="556" d="M538 540L316 -99Q290 -172 251 -195T136 -219Q114 -219 86 -215V-110Q108 -116 123 -116Q160 -116 185 -90T210 -26V-23L9 540H163L282 147L394 540H538Z" />
<glyph unicode="z" glyph-name="z" horiz-adv-x="500" d="M468 0H21V113L288 427H39V540H459V427L194 113H468V0Z" />
<glyph unicode="{" glyph-name="braceleft" horiz-adv-x="389" d="M317 -200H241Q187 -200 153 -161T118 -60V150Q118 192 103 207T41 222L37 223V315H53Q118 315 118 378V589Q118 650 152 689T241 729H317V630H280Q235 630 235 573V378Q235 323 215 300T138 269Q194
260 214 237T235 159V-36Q235 -73 245 -87T280 -101H317V-200Z" />
<glyph unicode="|" glyph-name="bar" horiz-adv-x="280" d="M190 -200H90V729H190V-200Z" />
<glyph unicode="}" glyph-name="braceright" horiz-adv-x="389" d="M352 214H348H336Q271 213 271 151V-60Q271 -121 237 -160T148 -200H72V-101H109Q154 -101 154 -44V151Q154 206 174 229T251 260Q195 269 175 292T154 370V565Q154 602 144 616T109 630H72V729H148Q202
729 236 690T271 589V379Q271 337 286 322T348 307L352 306V214Z" />
<glyph unicode="~" glyph-name="asciitilde" horiz-adv-x="584" d="M519 288Q510 142 392 142Q343 142 309 168L252 210Q220 234 191 234Q163 234 151 221T138 169H60Q67 314 187 314Q235 314 270 289L327 247Q361 222 388 222Q416 222 428 235T441 288H519Z" />
<glyph unicode="&#xa0;" glyph-name="uni00A0" horiz-adv-x="278" />
<glyph unicode="&#xa1;" glyph-name="exclamdown" horiz-adv-x="333" d="M242 -186H92V24L134 333H201L242 24V-186ZM242 394H92V540H242V394Z" />
<glyph unicode="&#xa2;" glyph-name="cent" horiz-adv-x="556" d="M522 187Q514 97 453 39T303 -23V-124H259V-22Q155 -15 96 59T36 259Q36 388 93 462T259 548V634H303V549Q395 548 455 490T522 338H388Q378 384 358 407T303 435V91Q337 96 357 118T388 187H522ZM259
94V433Q176 411 176 260Q176 119 259 94Z" />
<glyph unicode="&#xa3;" glyph-name="sterling" horiz-adv-x="556" d="M537 22Q461 -23 392 -23Q375 -23 294 -7T195 9Q146 9 86 -21L31 80Q94 123 117 155T141 231Q141 265 120 316H31V371H91Q57 430 48 456T38 516Q38 601 103 658T276 715Q393 715 452 660T522
484H390L389 495Q375 604 277 604Q234 604 207 579T179 513Q179 491 206 436Q229 389 236 371H375V316H253Q268 284 268 257Q268 213 242 175T152 86Q230 123 264 123Q266 123 318 113T391 102Q438 102 496 131L537 22Z" />
<glyph unicode="&#xa4;" glyph-name="currency" horiz-adv-x="556" d="M382 309T382 357T353 436T278 468T204 437T176 357T204 277T278 244T353 276ZM559 142L493 76L395 174Q345 141 278 141Q215 141 161 174L63 76L-3 142L95 240Q64 291 64 357T95 472L-3 570L63
636L161 538Q215 571 278 571Q345 571 395 538L493 636L559 570L461 472Q494 422 494 357Q494 290 461 240L559 142Z" />
<glyph unicode="&#xa5;" glyph-name="yen" horiz-adv-x="556" d="M552 704L360 351H497V292H355V239H497V180H355V0H215V180H70V239H215V292H70V351H208L5 704H144L283 450L417 704H552Z" />
<glyph unicode="&#xa6;" glyph-name="brokenbar" horiz-adv-x="280" d="M190 357H90V729H190V357ZM190 -200H90V172H190V-200Z" />
<glyph unicode="&#xa7;" glyph-name="section" horiz-adv-x="556" d="M518 262Q518 212 496 180T424 124Q494 75 494 -10T434 -148T276 -201Q67 -201 65 0H196V-10Q199 -56 219 -73T277 -90Q311 -90 332 -73T353 -29Q353 -3 343 9T283 49L112 149Q33 195 33 281Q33
326 52 356T125 428Q88 465 76 489T64 551Q64 626 123 674T273 723Q466 723 473 544H346Q336 621 268 621Q239 621 222 607T204 570Q204 549 222 532T294 485L421 415Q518 361 518 262ZM398 232Q398 256 385 271T337 306L194 382Q152 357 152 317Q152 294 163 279T205
247L352 167Q398 199 398 232Z" />
<glyph unicode="&#xa8;" glyph-name="dieresis" horiz-adv-x="333" d="M132 618H6V733H132V618ZM327 618H201V733H327V618Z" />
<glyph unicode="&#xa9;" glyph-name="copyright" horiz-adv-x="737" d="M718 484T718 340T616 94T369 -8T123 94T21 340T123 586T369 689T615 587ZM659 220T659 340T574 545T369 630T165 545T80 340T164 136T369 51T574 135ZM558 288Q557 218 507 179T374 139Q284
139 232 192T180 339Q180 433 232 486T376 540Q453 540 503 501T556 392H461Q446 459 379 459Q332 459 307 428T281 338Q281 281 306 250T376 219Q457 219 460 288H558Z" />
<glyph unicode="&#xaa;" glyph-name="ordfeminine" horiz-adv-x="370" d="M321 262H37V340H321V262ZM329 400H237Q228 411 227 432Q184 386 129 386Q85 386 58 413T31 484T54 553T126 587L160 593Q207 601 217 607T227 630Q227 661 178 661Q148 661 135 651T119
617H41Q43 729 176 729T309 629V450Q309 428 329 410V400ZM227 530V553Q218 548 192 543L163 537Q137 532 126 522T115 493Q115 454 161 454Q192 454 209 474T227 530Z" />
<glyph unicode="&#xab;" glyph-name="guillemotleft" horiz-adv-x="556" d="M255 72L88 218V332L255 481V364L154 275L255 186V72ZM468 72L301 218V332L468 481V364L367 275L468 186V72Z" />
<glyph unicode="&#xac;" glyph-name="logicalnot" horiz-adv-x="584" d="M524 159H424V291H60V391H524V159Z" />
<glyph unicode="&#xad;" glyph-name="uni00AD" horiz-adv-x="333" d="M298 207H26V342H298V207Z" />
<glyph unicode="&#xae;" glyph-name="registered" horiz-adv-x="737" d="M718 484T718 340T616 94T369 -8T123 94T21 340T123 586T369 689T615 587ZM659 220T659 340T574 545T369 630T165 545T80 340T164 136T369 51T574 135ZM545 145H442Q425 172 425 217Q425
221 426 237T427 256Q427 293 382 293H293V145H193V534H421Q478 534 508 504T539 425Q539 361 483 333Q512 320 518 298T527 195Q528 179 545 172V145ZM439 415Q439 436 428 445T387 454H293V373H387Q417 373 428 382T439 415Z" />
<glyph unicode="&#xaf;" glyph-name="overscore" horiz-adv-x="333" d="M315 636H16V715H315V636Z" />
<glyph unicode="0;" glyph-name="degree" horiz-adv-x="400" d="M343 628T343 569T301 468T200 426T99 468T57 569T99 670T200 712T301 670ZM287 533T287 569T262 630T200 656T139 631T113 569T138 508T200 482T261 507Z" />
<glyph unicode="1;" glyph-name="plusminus" horiz-adv-x="584" d="M524 300H342V190H242V300H60V400H242V582H342V400H524V300ZM524 0H60V100H524V0Z" />
<glyph unicode="2;" glyph-name="two.superior" horiz-adv-x="333" d="M303 600Q303 561 285 536T213 471Q159 434 152 425Q149 422 136 407H301V336H28Q29 390 48 420T120 485Q184 527 201 547T219 596Q219 623 205 638T165 653Q113 653 113 590L114 576H33Q32
583 32 592Q32 653 68 685T170 718Q234 718 268 688T303 600Z" />
<glyph unicode="3;" glyph-name="three.superior" horiz-adv-x="333" d="M307 446Q307 391 269 358T167 324Q102 324 67 357T30 450H111Q115 392 168 392Q192 392 207 407T223 445Q223 500 149 500H135V555H145Q211 555 211 606Q211 628 198 641T164 654Q137
654 126 639T114 588H36Q39 656 72 687T167 718Q225 718 259 690T294 615Q294 565 248 537Q307 508 307 446Z" />
<glyph unicode="4;" glyph-name="acute" horiz-adv-x="333" d="M343 752L217 598H117L187 752H343Z" />
<glyph unicode="5;" glyph-name="mu" horiz-adv-x="611" d="M573 -6Q540 -23 503 -23Q468 -23 447 -11T408 31Q379 1 353 -11T292 -23Q231 -23 192 15V-220H58V540H198V206Q198 96 282 96Q326 96 354 126T383 202V540H523V150Q523 106 529 92T553 77Q560 77
573 81V-6Z" />
<glyph unicode="6;" glyph-name="paragraph" horiz-adv-x="556" d="M529 657H486V-191H388V657H325V-191H227V267Q135 271 77 335T19 495T78 660T226 729H529V657Z" />
<glyph unicode="7;" glyph-name="middot" horiz-adv-x="278" d="M214 281T214 250T192 197T139 175T86 197T64 250T86 303T139 325T192 303Z" />
<glyph unicode="8;" glyph-name="cedilla" horiz-adv-x="333" d="M294 -127Q294 -173 260 -201T165 -229Q110 -229 27 -201L46 -140Q115 -170 151 -170Q175 -170 191 -158T208 -129Q208 -98 157 -98H93L142 5H205L178 -50H218Q253 -50 273 -71T294 -127Z" />
<glyph unicode="9;" glyph-name="one.superior" horiz-adv-x="333" d="M231 335H147V589H53V643Q156 643 175 709H231V335Z" />
<glyph unicode="a;" glyph-name="ordmasculine" horiz-adv-x="365" d="M334 262H33V340H334V262ZM343 555Q343 477 300 432T183 386T66 432T23 557Q23 637 66 683T183 729Q259 729 301 683T343 555ZM259 556Q259 603 238 632T183 661T128 633T107 558T128
483T183 454T238 482T259 556Z" />
<glyph unicode="b;" glyph-name="guillemotright" horiz-adv-x="556" d="M255 220L88 72V189L189 278L88 367V481L255 335V220ZM462 220L295 72V189L396 278L295 367V481L462 335V220Z" />
<glyph unicode="c;" glyph-name="onequarter" horiz-adv-x="834" d="M242 335H158V589H64V643Q166 643 186 709H242V335ZM670 715L247 -25H160L583 715H670ZM758 82H718V0H634V82H476V147L622 374H718V148H758V82ZM634 148V292L541 148H634Z" />
<glyph unicode="d;" glyph-name="onehalf" horiz-adv-x="834" d="M242 335H158V589H64V643Q166 643 186 709H242V335ZM644 715L221 -25H134L557 715H644ZM774 264Q774 224 756 198T685 136Q632 99 623 88Q620 85 608 71H773V0H500Q501 53 520 84T591 149Q656
191 673 211T691 260Q691 287 677 302T637 317Q612 317 598 301T584 254L586 240H505Q504 247 504 256Q504 317 540 349T642 382Q706 382 740 352T774 264Z" />
<glyph unicode="e;" glyph-name="threequarters" horiz-adv-x="834" d="M340 446Q340 391 302 358T200 324Q135 324 100 357T63 450H144Q148 392 201 392Q225 392 240 407T256 445Q256 500 182 500H168V555H178Q244 555 244 606Q244 628 231 641T197 654Q170
654 159 639T147 588H69Q72 656 105 687T200 718Q258 718 292 690T327 615Q327 565 281 537Q340 508 340 446ZM702 715L279 -25H192L615 715H702ZM758 82H718V0H634V82H476V147L622 374H718V148H758V82ZM634 148V292L541 148H634Z" />
<glyph unicode="f;" glyph-name="questiondown" horiz-adv-x="611" d="M552 59Q552 -73 487 -138T309 -204Q199 -204 130 -140T60 26Q60 89 85 130T180 220Q225 252 236 271T247 339H371V325Q371 268 350 228T272 141Q227 104 214 84T201 29Q201 -20 231 -53T306
-86Q354 -86 385 -48T416 48V57V59H552ZM381 394H231V540H381V394Z" />
<glyph unicode="0;" glyph-name="Agrave" horiz-adv-x="722" d="M703 0H549L501 147H228L179 0H26L285 729H451L703 0ZM460 272L365 557L270 272H460ZM421 786H315L180 921H345L421 786Z" />
<glyph unicode="1;" glyph-name="Aacute" horiz-adv-x="722" d="M703 0H549L501 147H228L179 0H26L285 729H451L703 0ZM460 272L365 557L270 272H460ZM556 921L421 786H315L391 921H556Z" />
<glyph unicode="2;" glyph-name="Acircumflex" horiz-adv-x="722" d="M703 0H549L501 147H228L179 0H26L285 729H451L703 0ZM460 272L365 557L270 272H460ZM559 787H465L367 857L268 787H177L307 922H435L559 787Z" />
<glyph unicode="3;" glyph-name="Atilde" horiz-adv-x="722" d="M703 0H549L501 147H228L179 0H26L285 729H451L703 0ZM460 272L365 557L270 272H460ZM547 918Q541 791 452 791Q428 791 397 803L326 829Q308 835 296 835Q278 835 269 825T256 790H193Q196
848 221 881T287 914Q307 914 343 901L414 876Q428 870 448 870Q480 870 484 918H547Z" />
<glyph unicode="4;" glyph-name="Adieresis" horiz-adv-x="722" d="M703 0H549L501 147H228L179 0H26L285 729H451L703 0ZM460 272L365 557L270 272H460ZM334 797H208V912H334V797ZM529 797H403V912H529V797Z" />
<glyph unicode="5;" glyph-name="Aring" horiz-adv-x="722" d="M703 0H549L501 147H228L179 0H26L285 729H451L703 0ZM460 272L365 557L270 272H460ZM468 862Q468 822 439 793T369 764Q327 764 298 793T269 863T298 933T370 962Q411 962 439 933T468 862ZM415
844T415 863T402 895T370 909Q350 909 336 896T322 863T336 831T370 817Q388 817 401 830Z" />
<glyph unicode="6;" glyph-name="AE" horiz-adv-x="1000" d="M966 0H430V152H207L154 0H1L264 729H946V604H580V439H919V314H580V125H966V0ZM430 277V604H363L249 277H430Z" />
<glyph unicode="7;" glyph-name="Ccedilla" horiz-adv-x="722" d="M685 249Q678 130 602 62T397 -11L378 -50H418Q453 -50 473 -71T494 -127Q494 -173 460 -201T365 -229Q310 -229 227 -201L246 -140Q315 -170 351 -170Q375 -170 391 -158T408 -129Q408 -98
357 -98H293L335 -10Q199 3 122 102T44 364Q44 540 133 640T378 741Q505 741 589 673T682 482H539Q508 613 383 613Q294 613 244 548T194 362Q194 243 242 179T378 114Q526 114 539 249H685Z" />
<glyph unicode="8;" glyph-name="Egrave" horiz-adv-x="667" d="M624 0H79V729H606V604H229V439H578V314H229V125H624V0ZM396 786H290L155 921H320L396 786Z" />
<glyph unicode="9;" glyph-name="Eacute" horiz-adv-x="667" d="M624 0H79V729H606V604H229V439H578V314H229V125H624V0ZM531 921L396 786H290L366 921H531Z" />
<glyph unicode="a;" glyph-name="Ecircumflex" horiz-adv-x="667" d="M624 0H79V729H606V604H229V439H578V314H229V125H624V0ZM534 787H440L342 857L243 787H152L282 922H410L534 787Z" />
<glyph unicode="b;" glyph-name="Edieresis" horiz-adv-x="667" d="M624 0H79V729H606V604H229V439H578V314H229V125H624V0ZM309 797H183V912H309V797ZM504 797H378V912H504V797Z" />
<glyph unicode="c;" glyph-name="Igrave" horiz-adv-x="278" d="M213 0H63V729H213V0ZM213 786H107L-28 921H137L213 786Z" />
<glyph unicode="d;" glyph-name="Iacute" horiz-adv-x="278" d="M213 0H63V729H213V0ZM305 921L170 786H64L140 921H305Z" />
<glyph unicode="e;" glyph-name="Icircumflex" horiz-adv-x="278" d="M213 0H63V729H213V0ZM329 787H235L137 857L38 787H-53L77 922H205L329 787Z" />
<glyph unicode="f;" glyph-name="Idieresis" horiz-adv-x="278" d="M213 0H63V729H213V0ZM104 797H-22V912H104V797ZM299 797H173V912H299V797Z" />
<glyph unicode="&#xd0;" glyph-name="Eth" horiz-adv-x="722" d="M681 365Q681 284 658 211T593 85Q557 40 503 20T362 0H77V339H0V419H77V729H362Q448 729 502 709T593 645Q634 594 657 520T681 365ZM537 364Q537 479 498 541T362 604H227V419H377V339H227V125H362Q459
125 498 187T537 364Z" />
<glyph unicode="&#xd1;" glyph-name="Ntilde" horiz-adv-x="722" d="M661 0H511L218 504V0H68V729H222L511 233V729H661V0ZM540 918Q534 791 445 791Q422 791 390 803L319 829Q301 835 289 835Q271 835 262 825T249 790H186Q189 848 214 881T280 914Q300 914 336
901L407 876Q421 870 441 870Q472 870 477 918H540Z" />
<glyph unicode="&#xd2;" glyph-name="Ograve" horiz-adv-x="778" d="M742 360Q742 198 645 93T391 -12Q232 -12 136 93T40 365Q40 526 136 633T390 741Q548 741 645 634T742 360ZM592 361Q592 475 538 544T391 613Q301 613 246 545T190 365Q190 251 245 184T391
116Q481 116 536 183T592 361ZM443 786H337L202 921H367L443 786Z" />
<glyph unicode="&#xd3;" glyph-name="Oacute" horiz-adv-x="778" d="M742 360Q742 198 645 93T391 -12Q232 -12 136 93T40 365Q40 526 136 633T390 741Q548 741 645 634T742 360ZM592 361Q592 475 538 544T391 613Q301 613 246 545T190 365Q190 251 245 184T391
116Q481 116 536 183T592 361ZM578 921L443 786H337L413 921H578Z" />
<glyph unicode="&#xd4;" glyph-name="Ocircumflex" horiz-adv-x="778" d="M742 360Q742 198 645 93T391 -12Q232 -12 136 93T40 365Q40 526 136 633T390 741Q548 741 645 634T742 360ZM592 361Q592 475 538 544T391 613Q301 613 246 545T190 365Q190 251 245 184T391
116Q481 116 536 183T592 361ZM581 787H487L389 857L290 787H199L329 922H457L581 787Z" />
<glyph unicode="&#xd5;" glyph-name="Otilde" horiz-adv-x="778" d="M742 360Q742 198 645 93T391 -12Q232 -12 136 93T40 365Q40 526 136 633T390 741Q548 741 645 634T742 360ZM592 361Q592 475 538 544T391 613Q301 613 246 545T190 365Q190 251 245 184T391
116Q481 116 536 183T592 361ZM569 918Q563 791 474 791Q450 791 419 803L348 829Q330 835 318 835Q300 835 291 825T278 790H215Q218 848 243 881T309 914Q329 914 365 901L436 876Q450 870 470 870Q502 870 506 918H569Z" />
<glyph unicode="&#xd6;" glyph-name="Odieresis" horiz-adv-x="778" d="M742 360Q742 198 645 93T391 -12Q232 -12 136 93T40 365Q40 526 136 633T390 741Q548 741 645 634T742 360ZM592 361Q592 475 538 544T391 613Q301 613 246 545T190 365Q190 251 245 184T391
116Q481 116 536 183T592 361ZM356 797H230V912H356V797ZM551 797H425V912H551V797Z" />
<glyph unicode="&#xd7;" glyph-name="multiply" horiz-adv-x="584" d="M491 121L421 51L292 179L163 51L93 121L221 250L93 379L163 449L292 321L421 449L491 379L363 250L491 121Z" />
<glyph unicode="&#xd8;" glyph-name="Oslash" horiz-adv-x="778" d="M742 360Q742 198 645 93T391 -12Q262 -12 173 60L109 -9L41 55L109 128Q40 226 40 365Q40 526 136 633T390 741Q518 741 608 668L673 738L741 674L672 600Q742 500 742 360ZM592 361Q592 432
569 489L266 161Q317 116 391 116Q481 116 536 183T592 361ZM515 568Q465 613 391 613Q301 613 246 545T190 365Q190 295 212 240L515 568Z" />
<glyph unicode="&#xd9;" glyph-name="Ugrave" horiz-adv-x="722" d="M654 246Q654 121 575 55T365 -12T156 54T76 246V729H226V246Q226 116 365 116T504 246V729H654V246ZM414 786H308L173 921H338L414 786Z" />
<glyph unicode="&#xda;" glyph-name="Uacute" horiz-adv-x="722" d="M654 246Q654 121 575 55T365 -12T156 54T76 246V729H226V246Q226 116 365 116T504 246V729H654V246ZM549 921L414 786H308L384 921H549Z" />
<glyph unicode="&#xdb;" glyph-name="Ucircumflex" horiz-adv-x="722" d="M654 246Q654 121 575 55T365 -12T156 54T76 246V729H226V246Q226 116 365 116T504 246V729H654V246ZM552 787H458L360 857L261 787H170L300 922H428L552 787Z" />
<glyph unicode="&#xdc;" glyph-name="Udieresis" horiz-adv-x="722" d="M654 246Q654 121 575 55T365 -12T156 54T76 246V729H226V246Q226 116 365 116T504 246V729H654V246ZM327 797H201V912H327V797ZM522 797H396V912H522V797Z" />
<glyph unicode="&#xdd;" glyph-name="Yacute" horiz-adv-x="667" d="M650 729L419 270V0H269V270L27 729H194L343 407L482 729H650ZM532 921L397 786H291L367 921H532Z" />
<glyph unicode="&#xde;" glyph-name="Thorn" horiz-adv-x="667" d="M633 382Q633 270 574 205T413 140H226V0H76V729H226V609H398Q514 609 571 553Q633 492 633 382ZM483 374Q483 430 455 457T366 484H226V265H366Q483 265 483 374Z" />
<glyph unicode="&#xdf;" glyph-name="germandbls" horiz-adv-x="611" d="M575 236Q575 122 515 53T357 -17Q334 -17 285 -11V101L298 102L318 103Q370 105 402 138T435 226Q435 283 399 316T298 349H285V444H294Q339 445 365 469T392 533Q392 572 366 594T294
616Q253 616 230 595T207 537V0H67V518Q67 729 303 729Q404 729 468 678T532 547Q532 445 445 411Q507 398 541 352T575 236Z" />
<glyph unicode="&#xe0;" glyph-name="agrave" horiz-adv-x="556" d="M524 0H372Q356 20 356 68Q282 -9 192 -9Q121 -9 75 31T28 146Q28 218 66 256T187 309L243 319Q255 321 275 324T303 328T324 334T342 343T351 358T355 382Q355 436 274 436Q222 436 201 420T175
362H40Q53 549 271 549Q492 549 492 383V83Q492 46 524 17V0ZM355 231V255Q336 246 296 238L248 229Q203 221 186 207T168 162Q168 104 244 104Q297 104 326 137T355 231ZM321 598H221L95 752H251L321 598Z" />
<glyph unicode="&#xe1;" glyph-name="aacute" horiz-adv-x="556" d="M524 0H372Q356 20 356 68Q282 -9 192 -9Q121 -9 75 31T28 146Q28 218 66 256T187 309L243 319Q255 321 275 324T303 328T324 334T342 343T351 358T355 382Q355 436 274 436Q222 436 201 420T175
362H40Q53 549 271 549Q492 549 492 383V83Q492 46 524 17V0ZM355 231V255Q336 246 296 238L248 229Q203 221 186 207T168 162Q168 104 244 104Q297 104 326 137T355 231ZM447 752L321 598H221L291 752H447Z" />
<glyph unicode="&#xe2;" glyph-name="acircumflex" horiz-adv-x="556" d="M524 0H372Q356 20 356 68Q282 -9 192 -9Q121 -9 75 31T28 146Q28 218 66 256T187 309L243 319Q255 321 275 324T303 328T324 334T342 343T351 358T355 382Q355 436 274 436Q222 436 201
420T175 362H40Q53 549 271 549Q492 549 492 383V83Q492 46 524 17V0ZM355 231V255Q336 246 296 238L248 229Q203 221 186 207T168 162Q168 104 244 104Q297 104 326 137T355 231ZM440 598H352L270 675L188 598H102L210 752H337L440 598Z" />
<glyph unicode="&#xe3;" glyph-name="atilde" horiz-adv-x="556" d="M524 0H372Q356 20 356 68Q282 -9 192 -9Q121 -9 75 31T28 146Q28 218 66 256T187 309L243 319Q255 321 275 324T303 328T324 334T342 343T351 358T355 382Q355 436 274 436Q222 436 201 420T175
362H40Q53 549 271 549Q492 549 492 383V83Q492 46 524 17V0ZM355 231V255Q336 246 296 238L248 229Q203 221 186 207T168 162Q168 104 244 104Q297 104 326 137T355 231ZM449 739Q443 612 354 612Q330 612 299 624L228 650Q210 656 198 656Q180 656 171 646T158
611H95Q98 669 123 702T189 735Q209 735 245 722L316 697Q330 691 350 691Q382 691 386 739H449Z" />
<glyph unicode="&#xe4;" glyph-name="adieresis" horiz-adv-x="556" d="M524 0H372Q356 20 356 68Q282 -9 192 -9Q121 -9 75 31T28 146Q28 218 66 256T187 309L243 319Q255 321 275 324T303 328T324 334T342 343T351 358T355 382Q355 436 274 436Q222 436 201
420T175 362H40Q53 549 271 549Q492 549 492 383V83Q492 46 524 17V0ZM355 231V255Q336 246 296 238L248 229Q203 221 186 207T168 162Q168 104 244 104Q297 104 326 137T355 231ZM236 618H110V733H236V618ZM431 618H305V733H431V618Z" />
<glyph unicode="&#xe5;" glyph-name="aring" horiz-adv-x="556" d="M524 0H372Q356 20 356 68Q282 -9 192 -9Q121 -9 75 31T28 146Q28 218 66 256T187 309L243 319Q255 321 275 324T303 328T324 334T342 343T351 358T355 382Q355 436 274 436Q222 436 201 420T175
362H40Q53 549 271 549Q492 549 492 383V83Q492 46 524 17V0ZM355 231V255Q336 246 296 238L248 229Q203 221 186 207T168 162Q168 104 244 104Q297 104 326 137T355 231ZM370 674Q370 634 341 605T271 576Q229 576 200 605T171 675T200 745T272 774Q313 774 341
745T370 674ZM317 656T317 675T304 707T272 721Q252 721 238 708T224 675T238 643T272 629Q290 629 303 642Z" />
<glyph unicode="&#xe6;" glyph-name="ae" horiz-adv-x="889" d="M857 250Q857 238 856 226H494Q494 164 525 132T608 99Q642 99 672 115T712 152H850Q826 82 758 37T600 -8Q464 -8 400 96Q311 -9 195 -9Q117 -9 72 32T27 149Q27 222 65 259T186 312L242 322Q255
324 270 326T291 330T304 332T314 335T321 338T330 343Q354 356 354 383Q354 436 269 436Q222 436 201 420T174 362H43Q46 549 271 549Q388 549 446 499Q508 549 601 549Q722 549 789 471T857 250ZM354 231V254Q330 240 295 235L247 228Q205 222 186 208T167 163Q167
104 243 104Q297 104 325 136T354 231ZM711 319Q700 442 602 442T495 319H711Z" />
<glyph unicode="&#xe7;" glyph-name="ccedilla" horiz-adv-x="556" d="M522 187Q513 105 455 52T308 -8L288 -50H328Q363 -50 383 -71T404 -127Q404 -173 370 -201T275 -229Q220 -229 137 -201L156 -140Q225 -170 261 -170Q285 -170 301 -158T318 -129Q318 -98
267 -98H203L246 -7Q144 5 89 75T34 266Q34 403 100 476T289 549Q390 549 452 493T522 338H388Q376 391 354 413T288 436Q174 436 174 266Q174 188 204 146T288 104Q328 104 351 124T388 187H522Z" />
<glyph unicode="&#xe8;" glyph-name="egrave" horiz-adv-x="556" d="M525 250L524 233H162Q165 158 193 128T274 98Q364 98 381 152H519Q496 74 429 33T269 -9Q153 -9 88 62T22 263Q22 398 88 473T272 549Q391 549 458 470T525 250ZM379 326Q374 383 345 412T270
442Q178 442 164 326H379ZM322 598H222L96 752H252L322 598Z" />
<glyph unicode="&#xe9;" glyph-name="eacute" horiz-adv-x="556" d="M525 250L524 233H162Q165 158 193 128T274 98Q364 98 381 152H519Q496 74 429 33T269 -9Q153 -9 88 62T22 263Q22 398 88 473T272 549Q391 549 458 470T525 250ZM379 326Q374 383 345 412T270
442Q178 442 164 326H379ZM448 752L322 598H222L292 752H448Z" />
<glyph unicode="&#xea;" glyph-name="ecircumflex" horiz-adv-x="556" d="M525 250L524 233H162Q165 158 193 128T274 98Q364 98 381 152H519Q496 74 429 33T269 -9Q153 -9 88 62T22 263Q22 398 88 473T272 549Q391 549 458 470T525 250ZM379 326Q374 383 345
412T270 442Q178 442 164 326H379ZM441 598H353L271 675L189 598H103L211 752H338L441 598Z" />
<glyph unicode="&#xeb;" glyph-name="edieresis" horiz-adv-x="556" d="M525 250L524 233H162Q165 158 193 128T274 98Q364 98 381 152H519Q496 74 429 33T269 -9Q153 -9 88 62T22 263Q22 398 88 473T272 549Q391 549 458 470T525 250ZM379 326Q374 383 345 412T270
442Q178 442 164 326H379ZM237 618H111V733H237V618ZM432 618H306V733H432V618Z" />
<glyph unicode="&#xec;" glyph-name="igrave" horiz-adv-x="278" d="M207 0H67V540H207V0ZM207 598H107L-19 752H137L207 598Z" />
<glyph unicode="&#xed;" glyph-name="iacute" horiz-adv-x="278" d="M207 0H67V540H207V0ZM294 752L168 598H68L138 752H294Z" />
<glyph unicode="&#xee;" glyph-name="icircumflex" horiz-adv-x="278" d="M207 0H67V540H207V0ZM308 598H220L138 675L56 598H-30L78 752H205L308 598Z" />
<glyph unicode="&#xef;" glyph-name="idieresis" horiz-adv-x="278" d="M207 0H67V540H207V0ZM104 618H-22V733H104V618ZM299 618H173V733H299V618Z" />
<glyph unicode="&#xf0;" glyph-name="eth" horiz-adv-x="611" d="M569 276Q569 139 499 65T302 -9Q176 -9 106 64T35 272Q35 391 101 462T274 534Q310 534 359 515Q319 579 264 611L187 565L145 602L215 646Q177 669 125 694L192 741Q227 728 279 699Q286 695
294 692L381 744L432 710L348 660Q462 583 515 491T569 276ZM428 263V264Q428 342 394 385T302 429T210 386T176 267T210 148T302 104T394 146T428 263Z" />
<glyph unicode="&#xf1;" glyph-name="ntilde" horiz-adv-x="611" d="M546 0H406V333Q406 430 316 430Q265 430 234 401T203 324V0H63V540H203V462Q261 549 365 549Q451 549 498 500T546 362V0ZM484 739Q478 612 389 612Q366 612 334 624L263 650Q245 656 233 656Q215
656 206 646T193 611H130Q133 669 158 702T224 735Q244 735 280 722L351 697Q365 691 385 691Q416 691 421 739H484Z" />
<glyph unicode="&#xf2;" glyph-name="ograve" horiz-adv-x="611" d="M569 266Q569 137 498 64T302 -9Q177 -9 106 64T35 270Q35 402 106 475T301 549Q429 549 499 476T569 266ZM429 268Q429 347 395 391T302 436T210 392T175 270T209 149T302 104Q359 104 394
148T429 268ZM355 598H255L129 752H285L355 598Z" />
<glyph unicode="&#xf3;" glyph-name="oacute" horiz-adv-x="611" d="M569 266Q569 137 498 64T302 -9Q177 -9 106 64T35 270Q35 402 106 475T301 549Q429 549 499 476T569 266ZM429 268Q429 347 395 391T302 436T210 392T175 270T209 149T302 104Q359 104 394
148T429 268ZM482 752L356 598H256L326 752H482Z" />
<glyph unicode="&#xf4;" glyph-name="ocircumflex" horiz-adv-x="611" d="M569 266Q569 137 498 64T302 -9Q177 -9 106 64T35 270Q35 402 106 475T301 549Q429 549 499 476T569 266ZM429 268Q429 347 395 391T302 436T210 392T175 270T209 149T302 104Q359 104
394 148T429 268ZM475 598H387L305 675L223 598H137L245 752H372L475 598Z" />
<glyph unicode="&#xf5;" glyph-name="otilde" horiz-adv-x="611" d="M569 266Q569 137 498 64T302 -9Q177 -9 106 64T35 270Q35 402 106 475T301 549Q429 549 499 476T569 266ZM429 268Q429 347 395 391T302 436T210 392T175 270T209 149T302 104Q359 104 394
148T429 268ZM484 739Q478 612 389 612Q366 612 334 624L263 650Q245 656 233 656Q215 656 206 646T193 611H130Q133 669 158 702T224 735Q244 735 280 722L351 697Q365 691 385 691Q416 691 421 739H484Z" />
<glyph unicode="&#xf6;" glyph-name="odieresis" horiz-adv-x="611" d="M569 266Q569 137 498 64T302 -9Q177 -9 106 64T35 270Q35 402 106 475T301 549Q429 549 499 476T569 266ZM429 268Q429 347 395 391T302 436T210 392T175 270T209 149T302 104Q359 104 394
148T429 268ZM271 618H145V733H271V618ZM466 618H340V733H466V618Z" />
<glyph unicode="&#xf7;" glyph-name="divide" horiz-adv-x="584" d="M524 200H60V300H524V200ZM367 463T367 432T345 379T292 357T239 379T217 432T239 485T292 507T345 485ZM367 99T367 68T345 15T292 -7T239 15T217 68T239 121T292 143T345 121Z" />
<glyph unicode="&#xf8;" glyph-name="oslash" horiz-adv-x="611" d="M569 266Q569 137 498 64T302 -9Q204 -9 138 37L100 -3L40 55L80 97Q35 167 35 270Q35 402 106 475T301 549Q402 549 466 504L504 543L564 485L524 443Q569 376 569 266ZM429 268Q429 304 421
334L227 130Q259 104 302 104Q359 104 394 148T429 268ZM377 410Q346 436 302 436Q244 436 210 392T175 270Q175 236 183 206L377 410Z" />
<glyph unicode="&#xf9;" glyph-name="ugrave" horiz-adv-x="611" d="M541 0H401V71Q341 -9 239 -9Q153 -9 106 40T58 178V540H198V207Q198 110 288 110Q339 110 370 139T401 216V540H541V0ZM355 598H255L129 752H285L355 598Z" />
<glyph unicode="&#xfa;" glyph-name="uacute" horiz-adv-x="611" d="M541 0H401V71Q341 -9 239 -9Q153 -9 106 40T58 178V540H198V207Q198 110 288 110Q339 110 370 139T401 216V540H541V0ZM482 752L356 598H256L326 752H482Z" />
<glyph unicode="&#xfb;" glyph-name="ucircumflex" horiz-adv-x="611" d="M541 0H401V71Q341 -9 239 -9Q153 -9 106 40T58 178V540H198V207Q198 110 288 110Q339 110 370 139T401 216V540H541V0ZM475 598H387L305 675L223 598H137L245 752H372L475 598Z" />
<glyph unicode="&#xfc;" glyph-name="udieresis" horiz-adv-x="611" d="M541 0H401V71Q341 -9 239 -9Q153 -9 106 40T58 178V540H198V207Q198 110 288 110Q339 110 370 139T401 216V540H541V0ZM271 618H145V733H271V618ZM466 618H340V733H466V618Z" />
<glyph unicode="&#xfd;" glyph-name="yacute" horiz-adv-x="556" d="M538 540L316 -99Q290 -172 251 -195T136 -219Q114 -219 86 -215V-110Q108 -116 123 -116Q160 -116 185 -90T210 -26V-23L9 540H163L282 147L394 540H538ZM454 752L328 598H228L298 752H454Z" />
<glyph unicode="&#xfe;" glyph-name="thorn" horiz-adv-x="611" d="M574 262Q574 149 510 70T348 -9Q248 -9 198 78V-218H58V729H198V460Q248 549 348 549Q445 549 509 468T574 262ZM434 260Q434 337 402 384T316 432T231 385T198 262Q198 197 231 153T316 108Q367
108 400 152T434 260Z" />
<glyph unicode="&#xff;" glyph-name="ydieresis" horiz-adv-x="556" d="M538 540L316 -99Q290 -172 251 -195T136 -219Q114 -219 86 -215V-110Q108 -116 123 -116Q160 -116 185 -90T210 -26V-23L9 540H163L282 147L394 540H538ZM243 618H117V733H243V618ZM438
618H312V733H438V618Z" />
</font>
</defs>
</svg>
